<svg height="512" viewBox="0 0 100 100" width="512" xmlns="http://www.w3.org/2000/svg"><g id="menu" fill="none" fill-rule="evenodd"><path id="Combined-Shape" d="m69.5 62c.8284271 0 1.5.6715729 1.5 1.5s-.6715729 1.5-1.5 1.5h-39c-.8284271 0-1.5-.6715729-1.5-1.5s.6715729-1.5 1.5-1.5zm0-13c.8284271 0 1.5.6715729 1.5 1.5s-.6715729 1.5-1.5 1.5h-39c-.8284271 0-1.5-.6715729-1.5-1.5s.6715729-1.5 1.5-1.5zm0-13c.8284271 0 1.5.6715729 1.5 1.5s-.6715729 1.5-1.5 1.5h-39c-.8284271 0-1.5-.6715729-1.5-1.5s.6715729-1.5 1.5-1.5z" fill="rgb(0,0,0)"/></g></svg>